<svg viewBox="0 0 512 512" xmlns="http://www.w3.org/2000/svg"><text x="729.64" y="231.36"><tspan x="729.64" y="231.36"/></text><text transform="scale(4.0128 .2492)" x="378.91" y="579.26"/><text x="1310.91" y="151.36"><tspan x="1310.91" y="151.36"/></text><text transform="scale(4.0128 .2492)" x="523.76" y="258.22"/><text x="239.33" y="-29.9"><tspan x="239.33" y="-29.9"/></text><text transform="scale(4.0128 .2492)" x="256.72" y="-469.13"/><text x="1337.38" y="-246.37"><tspan x="1337.38" y="-246.37"/></text><text transform="scale(4.0128 .2492)" x="530.36" y="-1337.8"/><text x="1918.65" y="-326.37"><tspan x="1918.65" y="-326.37"/></text><text transform="scale(4.0128 .2492)" x="675.21" y="-1658.83"/><text x="1529.53" y="-798.77"><tspan x="1529.53" y="-798.77"/></text><text transform="scale(4.0128 .2492)" x="578.24" y="-3554.48"/><text x="2110.79" y="-878.78"><tspan x="2110.79" y="-878.78"/></text><text transform="scale(4.0128 .2492)" x="723.09" y="-3875.52"/><text x="277.99" y="535.94"><tspan x="277.99" y="535.94"/></text><g fill-rule="evenodd"><path d="m471.95 253.05c0 120.9-98.01 218.91-218.91 218.91s-218.91-98.01-218.91-218.91 98.01-218.91 218.91-218.91 218.91 98.01 218.91 218.91" fill="#703f92"/><path d="m256 1c-140.83 0-255 114.17-255 255s114.17 255 255 255 255-114.17 255-255-114.17-255-255-255m8.827 44.931c120.9 0 218.9 98 218.9 218.9s-98 218.9-218.9 218.9-218.93-98-218.93-218.9 98.03-218.9 218.93-218.9" fill-opacity=".067"/><g fill-opacity=".129"><path d="m256 4.43c-138.94 0-251.57 112.63-251.57 251.57s112.63 251.57 251.57 251.57 251.57-112.63 251.57-251.57-112.63-251.57-251.57-251.57m5.885 38.556c120.9 0 218.9 98 218.9 218.9s-98 218.9-218.9 218.9-218.93-98-218.93-218.9 98.03-218.9 218.93-218.9"/><path d="m256 8.36c-136.77 0-247.64 110.87-247.64 247.64s110.87 247.64 247.64 247.64 247.64-110.87 247.64-247.64-110.87-247.64-247.64-247.64m2.942 31.691c120.9 0 218.9 98 218.9 218.9s-98 218.9-218.9 218.9-218.93-98-218.93-218.9 98.03-218.9 218.93-218.9"/></g><path d="m253.04 7.86c-135.42 0-245.19 109.78-245.19 245.19 0 135.42 109.78 245.19 245.19 245.19 135.42 0 245.19-109.78 245.19-245.19 0-135.42-109.78-245.19-245.19-245.19m0 26.297c120.9 0 218.9 98 218.9 218.9s-98 218.9-218.9 218.9-218.93-98-218.93-218.9 98.03-218.9 218.93-218.9z" fill="#fff" stroke="#000" stroke-opacity=".31" stroke-width="4.904"/></g><text x="729.64" y="231.36"><tspan x="729.64" y="231.36"/></text><text transform="scale(4.0128 .2492)" x="378.91" y="579.26"/><text x="1310.91" y="151.36"><tspan x="1310.91" y="151.36"/></text><text transform="scale(4.0128 .2492)" x="523.76" y="258.22"/><text x="239.33" y="-29.9"><tspan x="239.33" y="-29.9"/></text><text transform="scale(4.0128 .2492)" x="256.72" y="-469.13"/><text x="1337.38" y="-246.37"><tspan x="1337.38" y="-246.37"/></text><text transform="scale(4.0128 .2492)" x="530.36" y="-1337.79"/><text x="1918.65" y="-326.37"><tspan x="1918.65" y="-326.37"/></text><text transform="scale(4.0128 .2492)" x="675.21" y="-1658.82"/><text x="1529.53" y="-798.77"><tspan x="1529.53" y="-798.77"/></text><text transform="scale(4.0128 .2492)" x="578.24" y="-3554.46"/><text x="2110.79" y="-878.78"><tspan x="2110.79" y="-878.78"/></text><text transform="scale(4.0128 .2492)" x="723.09" y="-3875.5"/><text x="277.99" y="535.94"><tspan x="277.99" y="535.94"/></text><path d="m165.95 145.7c-6.734-.021-9.536 1.52-17.08 9.395-20.802 21.71-34.44 50.16-38.811 80.939-1.469 10.342-1.469 29.367 0 39.709 2.302 16.215 6.91 31.03 14.217 45.707.425.853.861 1.705 1.305 2.555.288.552.587 1.101.883 1.65.175.324.346.649.523.973.217.395.441.788.662 1.182.271.483.54.967.816 1.447.164.285.332.567.498.852.348.597.696 1.193 1.053 1.785.157.26.316.518.475.777.335.549.671 1.097 1.012 1.641.238.38.481.755.723 1.133.296.464.592.927.893 1.387.232.355.468.706.703 1.059.304.456.608.912.916 1.363.254.372.511.74.768 1.109.301.432.602.863.906 1.291.265.372.53.741.797 1.109.305.42.61.839.918 1.254.258.348.519.693.779 1.037.315.417.63.831.947 1.242.274.354.549.705.824 1.055.322.409.646.814.971 1.217.255.316.511.631.768.943.341.415.682.825 1.025 1.232.265.314.529.626.795.936.315.366.631.727.947 1.086.308.35.616.699.926 1.043.281.312.564.617.846.924.324.352.648.703.973 1.047.321.34.643.672.965 1 .266.275.532.551.799.82.105.106.209.217.314.322l113.77 113.77c112.48-5.432 202.67-95.75 207.92-208.27l-110.81-110.81c-.178-.178-.335-.315-.508-.484-.322-.315-.644-.623-.951-.91-.37-.345-.732-.671-1.084-.977-.373-.325-.752-.655-1.109-.938-.091-.072-.185-.15-.275-.219-.099-.076-.197-.146-.295-.219-.2-.149-.4-.295-.598-.432-.127-.088-.253-.169-.379-.252-.152-.099-.304-.199-.455-.291-.145-.089-.291-.172-.436-.254-.154-.088-.309-.173-.463-.254-.132-.069-.266-.135-.398-.199-.149-.072-.299-.143-.449-.209-.143-.063-.287-.124-.432-.182-.157-.062-.315-.122-.473-.178-.131-.046-.262-.093-.395-.135-.18-.058-.363-.11-.547-.16-.115-.031-.23-.063-.346-.092-.193-.047-.389-.089-.586-.129-.126-.025-.251-.052-.379-.074-.18-.032-.365-.058-.549-.084-.145-.02-.288-.043-.436-.061-.212-.025-.433-.042-.652-.061-.116-.01-.229-.023-.348-.031-.714-.048-1.465-.067-2.271-.061-5.472.044-9.03 1.486-12.691 5.143-3.809 3.806-5.15 7.186-5.141 12.947.01 6.074 1.315 8.877 7.03 15.05 14.8 15.986 24.458 34.04 28.721 53.52.135.617.259 1.238.383 1.857l-43.543-43.543-.029-.029c-6.657-6.653-9.667-8.172-16.16-8.158-4.183.009-4.945.199-8.344 2.061-6.655 3.646-10.232 10.127-9.643 17.467.389 4.849 2.465 8.624 7.684 13.971 7.783 7.975 12.999 17.212 15.607 27.643.687 2.745.971 6.317.971 12.223 0 1.091-.021 2.026-.041 2.967l-28.945-28.945c-.073-.073-.153-.14-.227-.213-.39-.383-.788-.758-1.195-1.125-.101-.091-.201-.183-.303-.273-.496-.437-1-.862-1.525-1.273-.101-.08-.205-.157-.307-.236-.436-.338-.881-.665-1.334-.984-.135-.095-.268-.192-.404-.285-.541-.371-1.093-.73-1.656-1.074-.111-.068-.224-.131-.336-.197-.485-.289-.977-.568-1.477-.836-.152-.082-.304-.163-.457-.242-.599-.311-1.206-.612-1.826-.893-.06-.027-.122-.051-.182-.078-.567-.253-1.143-.49-1.727-.717-.168-.065-.335-.13-.504-.193-.651-.243-1.308-.474-1.979-.684-3.4-1.061-8.609-1.461-13.367-1.195-.415.023-.807.072-1.213.105l-31.652-31.652c-3.084-3.084-5.797-4.549-9.639-5.061l-31.986-31.986c-.14-.14-.294-.268-.439-.404-.171-.16-.34-.32-.518-.475-.247-.215-.506-.419-.766-.623-.18-.141-.355-.287-.541-.422-.322-.234-.658-.454-.998-.67-.136-.086-.266-.178-.404-.262-.495-.298-1-.58-1.535-.838-2.303-1.12-3.797-1.403-7.482-1.414" opacity=".25"/><path d="m160.77 365.62c-3.7-1.223-4.937-2.061-9.42-6.376-10.06-9.679-19.959-23.501-27.07-37.79-7.307-14.677-11.916-29.493-14.218-45.708-1.469-10.342-1.469-29.366 0-39.708 4.371-30.78 18.01-59.23 38.812-80.94 7.544-7.875 10.346-9.416 17.08-9.395 3.685.011 5.178.294 7.481 1.414 8.807 4.285 12.837 14.254 9.436 23.343-.881 2.353-2.412 4.514-5.625 7.934-9.376 9.982-15.321 18.52-20.792 29.856-14.557 30.16-14.557 65.12 0 95.28 5.471 11.337 11.417 19.874 20.792 29.856 3.213 3.421 4.744 5.581 5.625 7.934 3.308 8.84-.579 19.02-8.797 23.04-3.721 1.821-9.843 2.399-13.299 1.256m181.27.229c-5.166-1.25-9.941-5.152-12.372-10.111-1.161-2.368-1.411-3.743-1.411-7.769 0-6.212 1.225-8.877 6.849-14.906 20.646-22.13 31.391-48.545 31.391-77.17 0-28.538-10.639-54.779-31.23-77.02-5.714-6.174-7.02-8.976-7.03-15.05-.009-5.761 1.332-9.141 5.141-12.947 3.659-3.657 7.219-5.1 12.691-5.144 6.574-.053 9.655 1.507 16.01 8.105 10.833 11.245 18.97 22.911 26.03 37.32 7.208 14.709 11.08 27 13.592 43.16 1.663 10.689 1.803 31.01.286 41.43-3.676 25.26-13.551 49.13-28.497 68.889-5.218 6.898-13.957 16.414-16.939 18.446-4.143 2.822-9.815 3.904-14.513 2.767m-139.94-37.09c-3.32-1.086-6.05-2.862-8.411-5.48-1.103-1.221-2.269-2.316-2.591-2.433s-2.029-1.835-3.793-3.818c-18.647-20.961-26.697-49.37-21.891-77.25 1.972-11.442 7.4-24.962 13.937-34.716 3.456-5.158 10.914-14.199 11.712-14.199.258 0 1.538-1.16 2.845-2.578s3.837-3.295 5.623-4.172c2.77-1.36 3.923-1.587 7.85-1.543 5.726.063 8.992 1.405 12.878 5.291 5.04 5.04 6.602 12.581 4.03 19.464-.948 2.533-2.317 4.384-6.083 8.222-8.297 8.456-13.461 17.462-16.13 28.12-1.341 5.361-1.341 19.08 0 24.443 2.667 10.664 7.829 19.673 16.13 28.15 3.762 3.841 5.154 5.722 6.09 8.222 4.399 11.757-3.574 24.2-15.93 24.854-2.276.121-4.849-.117-6.265-.581m98.51.292c-5.29-1.384-9.95-5.205-12.372-10.145-1.159-2.363-1.412-3.751-1.417-7.769-.006-4.249.206-5.296 1.606-7.967.886-1.691 3.56-5.058 5.942-7.481 7.721-7.855 12.966-17.14 15.575-27.576.686-2.744.97-6.315.97-12.222 0-5.906-.283-9.477-.97-12.222-2.608-10.431-7.825-19.669-15.608-27.644-5.219-5.347-7.295-9.122-7.684-13.971-.589-7.34 2.988-13.82 9.643-17.466 3.399-1.862 4.161-2.051 8.344-2.06 6.493-.014 9.503 1.505 16.16 8.158 36.34 36.31 36.32 94.38-.048 130.45-6.03 5.978-9.505 7.888-14.882 8.18-1.943.105-4.31-.012-5.259-.26m-51.22-36.876c-3.914-.843-8.975-2.805-12.303-4.77-4.097-2.419-10.183-8.515-12.621-12.643-12.154-20.579-1.877-46.994 21.07-54.16 5.44-1.698 15.515-1.698 20.955 0 16.388 5.115 27.12 20.434 26.17 37.35-.519 9.264-4.123 17.224-10.789 23.829-7.02 6.961-14.696 10.314-24.424 10.672-3.165.117-6.793-.012-8.06-.285" fill="#fff"/></svg>